<svg width="32" height="32" viewBox="0 0 32 32" fill="none" xmlns="http://www.w3.org/2000/svg">
<path d="M10.75 12.8333L15.75 17.8333L20.75 12.8333" stroke="black" stroke-width="1.5" stroke-linecap="round" stroke-linejoin="round"/>
<path d="M3.75 0.75H27.75C28.545 0.75 29.3083 1.08167 29.8717 1.67167C30.435 2.26167 30.75 3.06333 30.75 3.9V15.0117C30.75 19.185 29.17 23.19 26.3567 26.1417C23.5433 29.0933 19.7283 30.75 15.75 30.75C13.7745 30.7504 11.8203 30.3424 10.01 29.5517C8.17646 28.7504 6.52176 27.5904 5.14333 26.14C2.33 23.1883 0.75 19.1833 0.75 15.01V3.89833C0.75 3.06333 1.06667 2.26167 1.62833 1.67167C1.90104 1.38225 2.22975 1.1513 2.59448 0.992862C2.95921 0.834421 3.35235 0.751793 3.75 0.75Z" stroke="black" stroke-width="1.5" stroke-linecap="round" stroke-linejoin="round"/>
</svg>
